<mxfile host="app.diagrams.net" modified="2024-03-04T15:16:18.979Z" agent="Mozilla/5.0 (Windows NT 10.0; Win64; x64) AppleWebKit/537.36 (KHTML, like Gecko) Chrome/122.0.0.0 Safari/537.36 Edg/122.0.0.0" etag="Et5_ctyD9DkRD9Gud6fz" version="24.0.1" type="onedrive">
  <diagram name="Page-1" id="9NGKwQWVEBdeIsrZnu_j">
    <mxGraphModel grid="1" page="1" gridSize="10" guides="1" tooltips="1" connect="1" arrows="1" fold="1" pageScale="1" pageWidth="827" pageHeight="1169" math="0" shadow="0">
      <root>
        <mxCell id="0" />
        <mxCell id="1" parent="0" />
        <mxCell id="j_n_mVPMYlsdd1NLLN_--1" value="" style="image;html=1;image=img/lib/clip_art/networking/Firewall-page1_128x128.png" vertex="1" parent="1">
          <mxGeometry x="306" y="290" width="60" height="70" as="geometry" />
        </mxCell>
        <mxCell id="j_n_mVPMYlsdd1NLLN_--9" value="" style="image;html=1;image=img/lib/clip_art/networking/Firewall-page1_128x128.png" vertex="1" parent="1">
          <mxGeometry x="96" y="290" width="60" height="70" as="geometry" />
        </mxCell>
        <mxCell id="j_n_mVPMYlsdd1NLLN_--17" style="edgeStyle=orthogonalEdgeStyle;rounded=0;orthogonalLoop=1;jettySize=auto;html=1;startArrow=classic;startFill=1;" edge="1" parent="1" source="j_n_mVPMYlsdd1NLLN_--14" target="j_n_mVPMYlsdd1NLLN_--25">
          <mxGeometry relative="1" as="geometry">
            <mxPoint x="126" y="200" as="targetPoint" />
            <Array as="points">
              <mxPoint x="216" y="170" />
              <mxPoint x="126" y="170" />
            </Array>
          </mxGeometry>
        </mxCell>
        <mxCell id="j_n_mVPMYlsdd1NLLN_--18" style="edgeStyle=orthogonalEdgeStyle;rounded=0;orthogonalLoop=1;jettySize=auto;html=1;startArrow=classic;startFill=1;" edge="1" parent="1" source="j_n_mVPMYlsdd1NLLN_--14">
          <mxGeometry relative="1" as="geometry">
            <mxPoint x="336" y="200" as="targetPoint" />
            <Array as="points">
              <mxPoint x="226" y="170" />
              <mxPoint x="336" y="170" />
            </Array>
          </mxGeometry>
        </mxCell>
        <mxCell id="j_n_mVPMYlsdd1NLLN_--14" value="" style="image;aspect=fixed;html=1;points=[];align=center;fontSize=12;image=img/lib/azure2/networking/Virtual_WANs.svg;" vertex="1" parent="1">
          <mxGeometry x="184.83999999999997" y="10" width="75.16" height="74" as="geometry" />
        </mxCell>
        <mxCell id="j_n_mVPMYlsdd1NLLN_--19" value="" style="endArrow=classic;startArrow=classic;html=1;rounded=0;entryX=0;entryY=0.5;entryDx=0;entryDy=0;exitX=1;exitY=0.5;exitDx=0;exitDy=0;" edge="1" parent="1" source="j_n_mVPMYlsdd1NLLN_--9" target="j_n_mVPMYlsdd1NLLN_--1">
          <mxGeometry width="50" height="50" relative="1" as="geometry">
            <mxPoint x="195" y="220" as="sourcePoint" />
            <mxPoint x="265" y="220" as="targetPoint" />
          </mxGeometry>
        </mxCell>
        <mxCell id="j_n_mVPMYlsdd1NLLN_--20" value="Collegamento ISP1" style="text;html=1;align=center;verticalAlign=middle;whiteSpace=wrap;rounded=0;" vertex="1" parent="1">
          <mxGeometry x="46" y="110" width="140" height="30" as="geometry" />
        </mxCell>
        <mxCell id="j_n_mVPMYlsdd1NLLN_--21" value="Collegamento ISP2" style="text;html=1;align=center;verticalAlign=middle;whiteSpace=wrap;rounded=0;" vertex="1" parent="1">
          <mxGeometry x="256" y="110" width="140" height="30" as="geometry" />
        </mxCell>
        <mxCell id="j_n_mVPMYlsdd1NLLN_--22" value="Connessione Cluster HA" style="text;html=1;align=center;verticalAlign=middle;whiteSpace=wrap;rounded=0;" vertex="1" parent="1">
          <mxGeometry x="160" y="290" width="140" height="40" as="geometry" />
        </mxCell>
        <mxCell id="j_n_mVPMYlsdd1NLLN_--23" value="FW Perimetrale 1" style="text;html=1;align=center;verticalAlign=middle;whiteSpace=wrap;rounded=0;" vertex="1" parent="1">
          <mxGeometry x="10" y="270" width="100" height="30" as="geometry" />
        </mxCell>
        <mxCell id="j_n_mVPMYlsdd1NLLN_--24" value="FW Perimetrale 2" style="text;html=1;align=center;verticalAlign=middle;whiteSpace=wrap;rounded=0;" vertex="1" parent="1">
          <mxGeometry x="350" y="270" width="100" height="30" as="geometry" />
        </mxCell>
        <mxCell id="j_n_mVPMYlsdd1NLLN_--25" value="" style="image;aspect=fixed;html=1;points=[];align=center;fontSize=12;image=img/lib/azure2/networking/Virtual_Router.svg;" vertex="1" parent="1">
          <mxGeometry x="102" y="202" width="48" height="48" as="geometry" />
        </mxCell>
        <mxCell id="j_n_mVPMYlsdd1NLLN_--27" value="" style="image;aspect=fixed;html=1;points=[];align=center;fontSize=12;image=img/lib/azure2/networking/Virtual_Router.svg;" vertex="1" parent="1">
          <mxGeometry x="312" y="202" width="48" height="48" as="geometry" />
        </mxCell>
        <mxCell id="j_n_mVPMYlsdd1NLLN_--30" style="edgeStyle=orthogonalEdgeStyle;rounded=0;orthogonalLoop=1;jettySize=auto;html=1;exitX=0.5;exitY=0;exitDx=0;exitDy=0;entryX=0.5;entryY=0.979;entryDx=0;entryDy=0;entryPerimeter=0;startArrow=classic;startFill=1;" edge="1" parent="1" source="j_n_mVPMYlsdd1NLLN_--9" target="j_n_mVPMYlsdd1NLLN_--25">
          <mxGeometry relative="1" as="geometry" />
        </mxCell>
        <mxCell id="j_n_mVPMYlsdd1NLLN_--31" value="Attivo/Passivo" style="text;html=1;align=center;verticalAlign=middle;whiteSpace=wrap;rounded=0;" vertex="1" parent="1">
          <mxGeometry x="200" y="330" width="60" height="30" as="geometry" />
        </mxCell>
        <mxCell id="j_n_mVPMYlsdd1NLLN_--40" style="edgeStyle=orthogonalEdgeStyle;rounded=0;orthogonalLoop=1;jettySize=auto;html=1;exitX=0.5;exitY=0;exitDx=0;exitDy=0;entryX=0.5;entryY=1.042;entryDx=0;entryDy=0;entryPerimeter=0;startArrow=classic;startFill=1;" edge="1" parent="1" source="j_n_mVPMYlsdd1NLLN_--1" target="j_n_mVPMYlsdd1NLLN_--27">
          <mxGeometry relative="1" as="geometry" />
        </mxCell>
        <mxCell id="j_n_mVPMYlsdd1NLLN_--122" style="edgeStyle=orthogonalEdgeStyle;rounded=0;orthogonalLoop=1;jettySize=auto;html=1;exitX=1;exitY=0.25;exitDx=0;exitDy=0;exitPerimeter=0;startArrow=classic;startFill=1;" edge="1" parent="1" source="j_n_mVPMYlsdd1NLLN_--44" target="j_n_mVPMYlsdd1NLLN_--92">
          <mxGeometry relative="1" as="geometry" />
        </mxCell>
        <mxCell id="j_n_mVPMYlsdd1NLLN_--123" style="edgeStyle=orthogonalEdgeStyle;rounded=0;orthogonalLoop=1;jettySize=auto;html=1;exitX=1;exitY=0.75;exitDx=0;exitDy=0;exitPerimeter=0;startArrow=classic;startFill=1;" edge="1" parent="1" source="j_n_mVPMYlsdd1NLLN_--44" target="j_n_mVPMYlsdd1NLLN_--93">
          <mxGeometry relative="1" as="geometry">
            <mxPoint x="710" y="429" as="targetPoint" />
            <Array as="points">
              <mxPoint x="680" y="357" />
              <mxPoint x="680" y="419" />
            </Array>
          </mxGeometry>
        </mxCell>
        <mxCell id="j_n_mVPMYlsdd1NLLN_--137" style="edgeStyle=orthogonalEdgeStyle;rounded=0;orthogonalLoop=1;jettySize=auto;html=1;exitX=0;exitY=0.5;exitDx=0;exitDy=0;exitPerimeter=0;startArrow=classic;startFill=1;" edge="1" parent="1" source="j_n_mVPMYlsdd1NLLN_--44">
          <mxGeometry relative="1" as="geometry">
            <mxPoint x="380" y="320" as="targetPoint" />
          </mxGeometry>
        </mxCell>
        <mxCell id="j_n_mVPMYlsdd1NLLN_--44" value="" style="verticalLabelPosition=bottom;sketch=0;html=1;fillColor=#6ABD46;strokeColor=#ffffff;verticalAlign=top;align=center;points=[[0.085,0.085,0],[0.915,0.085,0],[0.915,0.915,0],[0.085,0.915,0],[0.25,0,0],[0.5,0,0],[0.75,0,0],[1,0.25,0],[1,0.5,0],[1,0.75,0],[0.75,1,0],[0.5,1,0],[0.25,1,0],[0,0.75,0],[0,0.5,0],[0,0.25,0]];pointerEvents=1;shape=mxgraph.cisco_safe.compositeIcon;bgIcon=mxgraph.cisco_safe.architecture.generic_appliance;resIcon=mxgraph.cisco_safe.architecture.l3_switch;" vertex="1" parent="1">
          <mxGeometry x="560" y="319" width="50" height="50" as="geometry" />
        </mxCell>
        <mxCell id="j_n_mVPMYlsdd1NLLN_--45" value="" style="verticalLabelPosition=bottom;sketch=0;html=1;fillColor=#6ABD46;strokeColor=#ffffff;verticalAlign=top;align=center;points=[[0.085,0.085,0],[0.915,0.085,0],[0.915,0.915,0],[0.085,0.915,0],[0.25,0,0],[0.5,0,0],[0.75,0,0],[1,0.25,0],[1,0.5,0],[1,0.75,0],[0.75,1,0],[0.5,1,0],[0.25,1,0],[0,0.75,0],[0,0.5,0],[0,0.25,0]];pointerEvents=1;shape=mxgraph.cisco_safe.compositeIcon;bgIcon=mxgraph.cisco_safe.architecture.generic_appliance;resIcon=mxgraph.cisco_safe.architecture.l3_switch;" vertex="1" parent="1">
          <mxGeometry x="560" y="399" width="50" height="50" as="geometry" />
        </mxCell>
        <mxCell id="j_n_mVPMYlsdd1NLLN_--47" style="edgeStyle=orthogonalEdgeStyle;rounded=0;orthogonalLoop=1;jettySize=auto;html=1;exitX=0.5;exitY=1;exitDx=0;exitDy=0;exitPerimeter=0;entryX=0.5;entryY=0;entryDx=0;entryDy=0;entryPerimeter=0;dashed=1;endArrow=none;endFill=0;" edge="1" parent="1" source="j_n_mVPMYlsdd1NLLN_--44" target="j_n_mVPMYlsdd1NLLN_--45">
          <mxGeometry relative="1" as="geometry" />
        </mxCell>
        <mxCell id="j_n_mVPMYlsdd1NLLN_--48" value="Core Switch" style="text;html=1;align=center;verticalAlign=middle;whiteSpace=wrap;rounded=0;" vertex="1" parent="1">
          <mxGeometry x="540" y="289" width="90" height="30" as="geometry" />
        </mxCell>
        <mxCell id="j_n_mVPMYlsdd1NLLN_--71" style="edgeStyle=orthogonalEdgeStyle;rounded=0;orthogonalLoop=1;jettySize=auto;html=1;exitX=0.5;exitY=0;exitDx=0;exitDy=0;exitPerimeter=0;startArrow=classic;startFill=1;" edge="1" parent="1" source="j_n_mVPMYlsdd1NLLN_--58">
          <mxGeometry relative="1" as="geometry">
            <mxPoint x="230" y="370" as="targetPoint" />
          </mxGeometry>
        </mxCell>
        <mxCell id="j_n_mVPMYlsdd1NLLN_--58" value="" style="verticalLabelPosition=bottom;sketch=0;html=1;fillColor=#6ABD46;strokeColor=#ffffff;verticalAlign=top;align=center;points=[[0.085,0.085,0],[0.915,0.085,0],[0.915,0.915,0],[0.085,0.915,0],[0.25,0,0],[0.5,0,0],[0.75,0,0],[1,0.25,0],[1,0.5,0],[1,0.75,0],[0.75,1,0],[0.5,1,0],[0.25,1,0],[0,0.75,0],[0,0.5,0],[0,0.25,0]];pointerEvents=1;shape=mxgraph.cisco_safe.compositeIcon;bgIcon=mxgraph.cisco_safe.architecture.generic_appliance;resIcon=mxgraph.cisco_safe.architecture.l3_switch;" vertex="1" parent="1">
          <mxGeometry x="98" y="490" width="50" height="50" as="geometry" />
        </mxCell>
        <mxCell id="j_n_mVPMYlsdd1NLLN_--59" value="" style="verticalLabelPosition=bottom;sketch=0;html=1;fillColor=#6ABD46;strokeColor=#ffffff;verticalAlign=top;align=center;points=[[0.085,0.085,0],[0.915,0.085,0],[0.915,0.915,0],[0.085,0.915,0],[0.25,0,0],[0.5,0,0],[0.75,0,0],[1,0.25,0],[1,0.5,0],[1,0.75,0],[0.75,1,0],[0.5,1,0],[0.25,1,0],[0,0.75,0],[0,0.5,0],[0,0.25,0]];pointerEvents=1;shape=mxgraph.cisco_safe.compositeIcon;bgIcon=mxgraph.cisco_safe.architecture.generic_appliance;resIcon=mxgraph.cisco_safe.architecture.l3_switch;" vertex="1" parent="1">
          <mxGeometry x="231" y="490" width="50" height="50" as="geometry" />
        </mxCell>
        <mxCell id="j_n_mVPMYlsdd1NLLN_--61" value="Core Switch" style="text;html=1;align=center;verticalAlign=middle;whiteSpace=wrap;rounded=0;" vertex="1" parent="1">
          <mxGeometry x="141" y="470" width="90" height="30" as="geometry" />
        </mxCell>
        <mxCell id="j_n_mVPMYlsdd1NLLN_--67" style="edgeStyle=orthogonalEdgeStyle;rounded=0;orthogonalLoop=1;jettySize=auto;html=1;exitX=1;exitY=0.5;exitDx=0;exitDy=0;exitPerimeter=0;entryX=0;entryY=0.5;entryDx=0;entryDy=0;entryPerimeter=0;endArrow=none;endFill=0;dashed=1;" edge="1" parent="1" source="j_n_mVPMYlsdd1NLLN_--58" target="j_n_mVPMYlsdd1NLLN_--59">
          <mxGeometry relative="1" as="geometry" />
        </mxCell>
        <mxCell id="j_n_mVPMYlsdd1NLLN_--74" value="" style="fontColor=#0066CC;verticalAlign=top;verticalLabelPosition=bottom;labelPosition=center;align=center;html=1;outlineConnect=0;fillColor=#CCCCCC;strokeColor=#6881B3;gradientColor=none;gradientDirection=north;strokeWidth=2;shape=mxgraph.networks.proxy_server;" vertex="1" parent="1">
          <mxGeometry x="350" y="610" width="50" height="55" as="geometry" />
        </mxCell>
        <mxCell id="j_n_mVPMYlsdd1NLLN_--75" value="" style="fontColor=#0066CC;verticalAlign=top;verticalLabelPosition=bottom;labelPosition=center;align=center;html=1;outlineConnect=0;fillColor=#CCCCCC;strokeColor=#6881B3;gradientColor=none;gradientDirection=north;strokeWidth=2;shape=mxgraph.networks.proxy_server;" vertex="1" parent="1">
          <mxGeometry x="262" y="610" width="50" height="55" as="geometry" />
        </mxCell>
        <mxCell id="j_n_mVPMYlsdd1NLLN_--91" style="edgeStyle=orthogonalEdgeStyle;rounded=0;orthogonalLoop=1;jettySize=auto;html=1;exitX=1;exitY=0.5;exitDx=0;exitDy=0;exitPerimeter=0;startArrow=classic;startFill=1;" edge="1" parent="1" source="j_n_mVPMYlsdd1NLLN_--77">
          <mxGeometry relative="1" as="geometry">
            <mxPoint x="330" y="610" as="targetPoint" />
            <Array as="points">
              <mxPoint x="230" y="605" />
              <mxPoint x="230" y="580" />
              <mxPoint x="330" y="580" />
            </Array>
          </mxGeometry>
        </mxCell>
        <mxCell id="j_n_mVPMYlsdd1NLLN_--77" value="" style="verticalLabelPosition=bottom;sketch=0;html=1;fillColor=#6ABD46;strokeColor=#ffffff;verticalAlign=top;align=center;points=[[0.085,0.085,0],[0.915,0.085,0],[0.915,0.915,0],[0.085,0.915,0],[0.25,0,0],[0.5,0,0],[0.75,0,0],[1,0.25,0],[1,0.5,0],[1,0.75,0],[0.75,1,0],[0.5,1,0],[0.25,1,0],[0,0.75,0],[0,0.5,0],[0,0.25,0]];pointerEvents=1;shape=mxgraph.cisco_safe.compositeIcon;bgIcon=mxgraph.cisco_safe.architecture.generic_appliance;resIcon=mxgraph.cisco_safe.architecture.switch;" vertex="1" parent="1">
          <mxGeometry x="156" y="580" width="50" height="50" as="geometry" />
        </mxCell>
        <mxCell id="j_n_mVPMYlsdd1NLLN_--78" value="" style="verticalLabelPosition=bottom;sketch=0;html=1;fillColor=#6ABD46;strokeColor=#ffffff;verticalAlign=top;align=center;points=[[0.085,0.085,0],[0.915,0.085,0],[0.915,0.915,0],[0.085,0.915,0],[0.25,0,0],[0.5,0,0],[0.75,0,0],[1,0.25,0],[1,0.5,0],[1,0.75,0],[0.75,1,0],[0.5,1,0],[0.25,1,0],[0,0.75,0],[0,0.5,0],[0,0.25,0]];pointerEvents=1;shape=mxgraph.cisco_safe.compositeIcon;bgIcon=mxgraph.cisco_safe.architecture.generic_appliance;resIcon=mxgraph.cisco_safe.architecture.switch;" vertex="1" parent="1">
          <mxGeometry x="156" y="670" width="50" height="50" as="geometry" />
        </mxCell>
        <mxCell id="j_n_mVPMYlsdd1NLLN_--118" style="edgeStyle=orthogonalEdgeStyle;rounded=0;orthogonalLoop=1;jettySize=auto;html=1;exitX=1;exitY=0.25;exitDx=0;exitDy=0;exitPerimeter=0;startArrow=classic;startFill=1;" edge="1" parent="1" source="j_n_mVPMYlsdd1NLLN_--79" target="j_n_mVPMYlsdd1NLLN_--114">
          <mxGeometry relative="1" as="geometry" />
        </mxCell>
        <mxCell id="j_n_mVPMYlsdd1NLLN_--119" style="edgeStyle=orthogonalEdgeStyle;rounded=0;orthogonalLoop=1;jettySize=auto;html=1;exitX=1;exitY=0.5;exitDx=0;exitDy=0;exitPerimeter=0;startArrow=classic;startFill=1;" edge="1" parent="1" source="j_n_mVPMYlsdd1NLLN_--79" target="j_n_mVPMYlsdd1NLLN_--105">
          <mxGeometry relative="1" as="geometry">
            <mxPoint x="600" y="670" as="targetPoint" />
            <Array as="points">
              <mxPoint x="530" y="595" />
              <mxPoint x="530" y="650" />
              <mxPoint x="590" y="650" />
              <mxPoint x="590" y="670" />
            </Array>
          </mxGeometry>
        </mxCell>
        <mxCell id="j_n_mVPMYlsdd1NLLN_--120" style="edgeStyle=orthogonalEdgeStyle;rounded=0;orthogonalLoop=1;jettySize=auto;html=1;exitX=1;exitY=0.75;exitDx=0;exitDy=0;exitPerimeter=0;startArrow=classic;startFill=1;" edge="1" parent="1" source="j_n_mVPMYlsdd1NLLN_--79" target="j_n_mVPMYlsdd1NLLN_--113">
          <mxGeometry relative="1" as="geometry">
            <mxPoint x="580" y="740" as="targetPoint" />
            <Array as="points">
              <mxPoint x="520" y="608" />
              <mxPoint x="520" y="690" />
              <mxPoint x="581" y="690" />
              <mxPoint x="581" y="740" />
            </Array>
          </mxGeometry>
        </mxCell>
        <mxCell id="j_n_mVPMYlsdd1NLLN_--121" style="edgeStyle=orthogonalEdgeStyle;rounded=0;orthogonalLoop=1;jettySize=auto;html=1;exitX=0.915;exitY=0.915;exitDx=0;exitDy=0;exitPerimeter=0;startArrow=classic;startFill=1;" edge="1" parent="1" source="j_n_mVPMYlsdd1NLLN_--79" target="j_n_mVPMYlsdd1NLLN_--115">
          <mxGeometry relative="1" as="geometry">
            <mxPoint x="600" y="830" as="targetPoint" />
            <Array as="points">
              <mxPoint x="510" y="616" />
              <mxPoint x="510" y="810" />
            </Array>
          </mxGeometry>
        </mxCell>
        <mxCell id="j_n_mVPMYlsdd1NLLN_--79" value="" style="verticalLabelPosition=bottom;sketch=0;html=1;fillColor=#6ABD46;strokeColor=#ffffff;verticalAlign=top;align=center;points=[[0.085,0.085,0],[0.915,0.085,0],[0.915,0.915,0],[0.085,0.915,0],[0.25,0,0],[0.5,0,0],[0.75,0,0],[1,0.25,0],[1,0.5,0],[1,0.75,0],[0.75,1,0],[0.5,1,0],[0.25,1,0],[0,0.75,0],[0,0.5,0],[0,0.25,0]];pointerEvents=1;shape=mxgraph.cisco_safe.compositeIcon;bgIcon=mxgraph.cisco_safe.architecture.generic_appliance;resIcon=mxgraph.cisco_safe.architecture.switch;" vertex="1" parent="1">
          <mxGeometry x="450" y="570" width="50" height="50" as="geometry" />
        </mxCell>
        <mxCell id="j_n_mVPMYlsdd1NLLN_--80" value="" style="verticalLabelPosition=bottom;sketch=0;html=1;fillColor=#6ABD46;strokeColor=#ffffff;verticalAlign=top;align=center;points=[[0.085,0.085,0],[0.915,0.085,0],[0.915,0.915,0],[0.085,0.915,0],[0.25,0,0],[0.5,0,0],[0.75,0,0],[1,0.25,0],[1,0.5,0],[1,0.75,0],[0.75,1,0],[0.5,1,0],[0.25,1,0],[0,0.75,0],[0,0.5,0],[0,0.25,0]];pointerEvents=1;shape=mxgraph.cisco_safe.compositeIcon;bgIcon=mxgraph.cisco_safe.architecture.generic_appliance;resIcon=mxgraph.cisco_safe.architecture.switch;" vertex="1" parent="1">
          <mxGeometry x="450" y="720" width="50" height="50" as="geometry" />
        </mxCell>
        <mxCell id="j_n_mVPMYlsdd1NLLN_--81" value="HA Proxy / Proxy Reverse" style="text;html=1;align=center;verticalAlign=middle;whiteSpace=wrap;rounded=0;" vertex="1" parent="1">
          <mxGeometry x="256" y="660" width="144" height="30" as="geometry" />
        </mxCell>
        <mxCell id="j_n_mVPMYlsdd1NLLN_--82" style="edgeStyle=orthogonalEdgeStyle;rounded=0;orthogonalLoop=1;jettySize=auto;html=1;exitX=0.88;exitY=0.5;exitDx=0;exitDy=0;exitPerimeter=0;entryX=0;entryY=0.5;entryDx=0;entryDy=0;entryPerimeter=0;startArrow=classic;startFill=1;" edge="1" parent="1" source="j_n_mVPMYlsdd1NLLN_--75" target="j_n_mVPMYlsdd1NLLN_--74">
          <mxGeometry relative="1" as="geometry" />
        </mxCell>
        <mxCell id="j_n_mVPMYlsdd1NLLN_--83" style="edgeStyle=orthogonalEdgeStyle;rounded=0;orthogonalLoop=1;jettySize=auto;html=1;exitX=0.5;exitY=1;exitDx=0;exitDy=0;" edge="1" parent="1" source="j_n_mVPMYlsdd1NLLN_--81" target="j_n_mVPMYlsdd1NLLN_--81">
          <mxGeometry relative="1" as="geometry" />
        </mxCell>
        <mxCell id="j_n_mVPMYlsdd1NLLN_--84" style="edgeStyle=orthogonalEdgeStyle;rounded=0;orthogonalLoop=1;jettySize=auto;html=1;exitX=0.5;exitY=1;exitDx=0;exitDy=0;exitPerimeter=0;entryX=0.5;entryY=0;entryDx=0;entryDy=0;entryPerimeter=0;endArrow=none;endFill=0;dashed=1;" edge="1" parent="1" source="j_n_mVPMYlsdd1NLLN_--77" target="j_n_mVPMYlsdd1NLLN_--78">
          <mxGeometry relative="1" as="geometry" />
        </mxCell>
        <mxCell id="j_n_mVPMYlsdd1NLLN_--85" style="edgeStyle=orthogonalEdgeStyle;rounded=0;orthogonalLoop=1;jettySize=auto;html=1;exitX=0.5;exitY=1;exitDx=0;exitDy=0;exitPerimeter=0;entryX=0.5;entryY=0;entryDx=0;entryDy=0;entryPerimeter=0;endArrow=none;endFill=0;dashed=1;" edge="1" parent="1" source="j_n_mVPMYlsdd1NLLN_--79" target="j_n_mVPMYlsdd1NLLN_--80">
          <mxGeometry relative="1" as="geometry" />
        </mxCell>
        <mxCell id="j_n_mVPMYlsdd1NLLN_--86" style="edgeStyle=orthogonalEdgeStyle;rounded=0;orthogonalLoop=1;jettySize=auto;html=1;exitX=0.5;exitY=1;exitDx=0;exitDy=0;exitPerimeter=0;entryX=0.5;entryY=0;entryDx=0;entryDy=0;entryPerimeter=0;startArrow=classic;startFill=1;" edge="1" parent="1" source="j_n_mVPMYlsdd1NLLN_--58" target="j_n_mVPMYlsdd1NLLN_--77">
          <mxGeometry relative="1" as="geometry" />
        </mxCell>
        <mxCell id="j_n_mVPMYlsdd1NLLN_--92" value="srvweb01" style="sketch=0;outlineConnect=0;fontColor=#232F3E;gradientColor=none;strokeColor=#232F3E;fillColor=#ffffff;dashed=0;verticalLabelPosition=bottom;verticalAlign=top;align=center;html=1;fontSize=12;fontStyle=0;aspect=fixed;shape=mxgraph.aws4.resourceIcon;resIcon=mxgraph.aws4.traditional_server;" vertex="1" parent="1">
          <mxGeometry x="719" y="280" width="60" height="60" as="geometry" />
        </mxCell>
        <mxCell id="j_n_mVPMYlsdd1NLLN_--93" value="srvpt01" style="sketch=0;outlineConnect=0;fontColor=#232F3E;gradientColor=none;strokeColor=#232F3E;fillColor=#ffffff;dashed=0;verticalLabelPosition=bottom;verticalAlign=top;align=center;html=1;fontSize=12;fontStyle=0;aspect=fixed;shape=mxgraph.aws4.resourceIcon;resIcon=mxgraph.aws4.traditional_server;" vertex="1" parent="1">
          <mxGeometry x="719" y="369" width="60" height="60" as="geometry" />
        </mxCell>
        <mxCell id="j_n_mVPMYlsdd1NLLN_--105" value="srvdc02" style="sketch=0;outlineConnect=0;fontColor=#232F3E;gradientColor=none;strokeColor=#232F3E;fillColor=#ffffff;dashed=0;verticalLabelPosition=bottom;verticalAlign=top;align=center;html=1;fontSize=12;fontStyle=0;aspect=fixed;shape=mxgraph.aws4.resourceIcon;resIcon=mxgraph.aws4.traditional_server;" vertex="1" parent="1">
          <mxGeometry x="610" y="650" width="40" height="40" as="geometry" />
        </mxCell>
        <mxCell id="j_n_mVPMYlsdd1NLLN_--113" value="srvapp01" style="sketch=0;outlineConnect=0;fontColor=#232F3E;gradientColor=none;strokeColor=#232F3E;fillColor=#ffffff;dashed=0;verticalLabelPosition=bottom;verticalAlign=top;align=center;html=1;fontSize=12;fontStyle=0;aspect=fixed;shape=mxgraph.aws4.resourceIcon;resIcon=mxgraph.aws4.traditional_server;" vertex="1" parent="1">
          <mxGeometry x="610" y="720" width="40" height="40" as="geometry" />
        </mxCell>
        <mxCell id="j_n_mVPMYlsdd1NLLN_--114" value="srvdc01" style="sketch=0;outlineConnect=0;fontColor=#232F3E;gradientColor=none;strokeColor=#232F3E;fillColor=#ffffff;dashed=0;verticalLabelPosition=bottom;verticalAlign=top;align=center;html=1;fontSize=12;fontStyle=0;aspect=fixed;shape=mxgraph.aws4.resourceIcon;resIcon=mxgraph.aws4.traditional_server;" vertex="1" parent="1">
          <mxGeometry x="610" y="580" width="40" height="40" as="geometry" />
        </mxCell>
        <mxCell id="j_n_mVPMYlsdd1NLLN_--115" value="srvdb01" style="sketch=0;outlineConnect=0;fontColor=#232F3E;gradientColor=none;strokeColor=#232F3E;fillColor=#ffffff;dashed=0;verticalLabelPosition=bottom;verticalAlign=top;align=center;html=1;fontSize=12;fontStyle=0;aspect=fixed;shape=mxgraph.aws4.resourceIcon;resIcon=mxgraph.aws4.traditional_server;" vertex="1" parent="1">
          <mxGeometry x="610" y="790" width="40" height="40" as="geometry" />
        </mxCell>
        <mxCell id="j_n_mVPMYlsdd1NLLN_--116" value="..." style="text;html=1;align=center;verticalAlign=middle;whiteSpace=wrap;rounded=0;" vertex="1" parent="1">
          <mxGeometry x="600" y="870" width="60" height="30" as="geometry" />
        </mxCell>
        <mxCell id="j_n_mVPMYlsdd1NLLN_--117" style="edgeStyle=orthogonalEdgeStyle;rounded=0;orthogonalLoop=1;jettySize=auto;html=1;entryX=0;entryY=0.5;entryDx=0;entryDy=0;entryPerimeter=0;startArrow=classic;startFill=1;" edge="1" parent="1" source="j_n_mVPMYlsdd1NLLN_--74" target="j_n_mVPMYlsdd1NLLN_--79">
          <mxGeometry relative="1" as="geometry" />
        </mxCell>
        <mxCell id="j_n_mVPMYlsdd1NLLN_--126" value="" style="fontColor=#0066CC;verticalAlign=top;verticalLabelPosition=bottom;labelPosition=center;align=center;html=1;outlineConnect=0;fillColor=#CCCCCC;strokeColor=#6881B3;gradientColor=none;gradientDirection=north;strokeWidth=2;shape=mxgraph.networks.pc;" vertex="1" parent="1">
          <mxGeometry x="20" y="740" width="60" height="40" as="geometry" />
        </mxCell>
        <mxCell id="j_n_mVPMYlsdd1NLLN_--127" value="" style="fontColor=#0066CC;verticalAlign=top;verticalLabelPosition=bottom;labelPosition=center;align=center;html=1;outlineConnect=0;fillColor=#CCCCCC;strokeColor=#6881B3;gradientColor=none;gradientDirection=north;strokeWidth=2;shape=mxgraph.networks.pc;" vertex="1" parent="1">
          <mxGeometry x="20" y="655" width="60" height="40" as="geometry" />
        </mxCell>
        <mxCell id="j_n_mVPMYlsdd1NLLN_--128" value="" style="fontColor=#0066CC;verticalAlign=top;verticalLabelPosition=bottom;labelPosition=center;align=center;html=1;outlineConnect=0;fillColor=#CCCCCC;strokeColor=#6881B3;gradientColor=none;gradientDirection=north;strokeWidth=2;shape=mxgraph.networks.pc;" vertex="1" parent="1">
          <mxGeometry x="20" y="580" width="60" height="40" as="geometry" />
        </mxCell>
        <mxCell id="j_n_mVPMYlsdd1NLLN_--129" value="pc01" style="text;html=1;align=center;verticalAlign=middle;whiteSpace=wrap;rounded=0;" vertex="1" parent="1">
          <mxGeometry x="36" y="620" width="60" height="30" as="geometry" />
        </mxCell>
        <mxCell id="j_n_mVPMYlsdd1NLLN_--130" value="pc03" style="text;html=1;align=center;verticalAlign=middle;whiteSpace=wrap;rounded=0;" vertex="1" parent="1">
          <mxGeometry x="20" y="780" width="60" height="30" as="geometry" />
        </mxCell>
        <mxCell id="j_n_mVPMYlsdd1NLLN_--131" value="pc02" style="text;html=1;align=center;verticalAlign=middle;whiteSpace=wrap;rounded=0;" vertex="1" parent="1">
          <mxGeometry x="20" y="700" width="60" height="30" as="geometry" />
        </mxCell>
        <mxCell id="j_n_mVPMYlsdd1NLLN_--132" style="edgeStyle=orthogonalEdgeStyle;rounded=0;orthogonalLoop=1;jettySize=auto;html=1;exitX=1;exitY=0.5;exitDx=0;exitDy=0;exitPerimeter=0;entryX=0;entryY=0.25;entryDx=0;entryDy=0;entryPerimeter=0;startArrow=classic;startFill=1;" edge="1" parent="1" source="j_n_mVPMYlsdd1NLLN_--128" target="j_n_mVPMYlsdd1NLLN_--77">
          <mxGeometry relative="1" as="geometry">
            <Array as="points">
              <mxPoint x="96" y="600" />
              <mxPoint x="96" y="593" />
            </Array>
          </mxGeometry>
        </mxCell>
        <mxCell id="j_n_mVPMYlsdd1NLLN_--133" style="edgeStyle=orthogonalEdgeStyle;rounded=0;orthogonalLoop=1;jettySize=auto;html=1;exitX=1;exitY=0.5;exitDx=0;exitDy=0;exitPerimeter=0;entryX=0;entryY=0.5;entryDx=0;entryDy=0;entryPerimeter=0;startArrow=classic;startFill=1;" edge="1" parent="1" source="j_n_mVPMYlsdd1NLLN_--127" target="j_n_mVPMYlsdd1NLLN_--77">
          <mxGeometry relative="1" as="geometry" />
        </mxCell>
        <mxCell id="j_n_mVPMYlsdd1NLLN_--134" style="edgeStyle=orthogonalEdgeStyle;rounded=0;orthogonalLoop=1;jettySize=auto;html=1;exitX=1;exitY=0.5;exitDx=0;exitDy=0;exitPerimeter=0;entryX=0;entryY=0.75;entryDx=0;entryDy=0;entryPerimeter=0;startArrow=classic;startFill=1;" edge="1" parent="1" source="j_n_mVPMYlsdd1NLLN_--126" target="j_n_mVPMYlsdd1NLLN_--77">
          <mxGeometry relative="1" as="geometry">
            <Array as="points">
              <mxPoint x="140" y="760" />
              <mxPoint x="140" y="618" />
            </Array>
          </mxGeometry>
        </mxCell>
        <mxCell id="j_n_mVPMYlsdd1NLLN_--135" value="..." style="text;html=1;align=center;verticalAlign=middle;whiteSpace=wrap;rounded=0;" vertex="1" parent="1">
          <mxGeometry x="20" y="810" width="60" height="30" as="geometry" />
        </mxCell>
        <mxCell id="j_n_mVPMYlsdd1NLLN_--138" value="" style="rounded=0;whiteSpace=wrap;html=1;fillColor=none;" vertex="1" parent="1">
          <mxGeometry x="9" y="460" width="650" height="440" as="geometry" />
        </mxCell>
        <mxCell id="j_n_mVPMYlsdd1NLLN_--139" value="&lt;font style=&quot;font-size: 18px;&quot;&gt;Internal&lt;/font&gt;" style="text;html=1;align=center;verticalAlign=middle;whiteSpace=wrap;rounded=0;" vertex="1" parent="1">
          <mxGeometry x="10" y="430" width="60" height="30" as="geometry" />
        </mxCell>
        <mxCell id="j_n_mVPMYlsdd1NLLN_--141" value="" style="rounded=0;whiteSpace=wrap;html=1;fillColor=none;" vertex="1" parent="1">
          <mxGeometry x="500" y="280" width="320" height="171" as="geometry" />
        </mxCell>
        <mxCell id="j_n_mVPMYlsdd1NLLN_--142" value="&lt;font style=&quot;font-size: 18px;&quot;&gt;DMZ&lt;/font&gt;" style="text;html=1;align=center;verticalAlign=middle;whiteSpace=wrap;rounded=0;" vertex="1" parent="1">
          <mxGeometry x="490" y="250" width="60" height="30" as="geometry" />
        </mxCell>
        <mxCell id="j_n_mVPMYlsdd1NLLN_--143" value="" style="rounded=0;whiteSpace=wrap;html=1;fillColor=none;" vertex="1" parent="1">
          <mxGeometry x="17" y="552.5" width="190" height="297.5" as="geometry" />
        </mxCell>
        <mxCell id="j_n_mVPMYlsdd1NLLN_--144" value="&lt;font style=&quot;font-size: 18px;&quot;&gt;Intranet&lt;/font&gt;" style="text;html=1;align=center;verticalAlign=middle;whiteSpace=wrap;rounded=0;" vertex="1" parent="1">
          <mxGeometry x="17" y="522.5" width="60" height="30" as="geometry" />
        </mxCell>
        <mxCell id="j_n_mVPMYlsdd1NLLN_--145" value="&lt;font style=&quot;font-size: 14px;&quot;&gt;&lt;b&gt;SERVER FARM / DATACENTER&lt;/b&gt;&lt;/font&gt;" style="text;html=1;align=center;verticalAlign=middle;whiteSpace=wrap;rounded=0;" vertex="1" parent="1">
          <mxGeometry x="320" y="540" width="220" height="30" as="geometry" />
        </mxCell>
      </root>
    </mxGraphModel>
  </diagram>
</mxfile>
